<?xml version="1.0" encoding="utf-8"?>
<svg xmlns="http://www.w3.org/2000/svg" xmlns:svg="http://www.w3.org/2000/svg" version="1.1" viewBox="0 0 1400 340">
	<title>The titlepage for the Standard Ebooks edition of Kipps, by H. G. Wells</title>
	<g aria-label="KIPPS">
		<path d="m 568.51791,61.789107 h 9.2288 v 28.828582 l 30.61038,-28.828582 h 11.87865 L 586.38158,93.587353 622.65716,130 H 610.50438 L 577.74671,97.15095 V 130 h -9.2288 z"/>
		<path d="m 634.92142,61.789107 h 9.2288 V 130 h -9.2288 z"/>
		<path d="m 676.74525,69.373171 v 25.630483 h 11.60453 q 6.44189,0 9.9598,-3.335161 3.51791,-3.33516 3.51791,-9.502924 0,-6.122076 -3.51791,-9.457237 -3.51791,-3.335161 -9.9598,-3.335161 z m -9.2288,-7.584064 h 20.83333 q 11.46747,0 17.31543,5.208333 5.89364,5.162647 5.89364,15.168129 0,10.096857 -5.89364,15.259504 -5.84796,5.162647 -17.31543,5.162647 H 676.74525 V 130 h -9.2288 z"/>
		<path d="m 738.21454,69.373171 v 25.630483 h 11.60454 q 6.44188,0 9.95979,-3.335161 3.51791,-3.33516 3.51791,-9.502924 0,-6.122076 -3.51791,-9.457237 -3.51791,-3.335161 -9.95979,-3.335161 z m -9.2288,-7.584064 h 20.83334 q 11.46747,0 17.31542,5.208333 5.89364,5.162647 5.89364,15.168129 0,10.096857 -5.89364,15.259504 -5.84795,5.162647 -17.31542,5.162647 H 738.21454 V 130 h -9.2288 z"/>
		<path d="m 831.34503,64.027777 v 9.000365 q -5.25402,-2.512792 -9.91411,-3.746345 -4.66009,-1.233552 -9.00037,-1.233552 -7.53837,0 -11.65022,2.923976 -4.06615,2.923977 -4.06615,8.315059 0,4.523026 2.69554,6.85307 2.74123,2.284357 10.32529,3.700658 l 5.57383,1.142178 q 10.3253,1.964547 15.21382,6.944445 4.93421,4.934209 4.93421,13.249269 0,9.91411 -6.67032,15.03107 -6.62464,5.11696 -19.46272,5.11696 -4.84284,0 -10.32529,-1.09649 -5.43677,-1.0965 -11.28473,-3.24379 v -9.50293 q 5.61952,3.15242 11.0106,4.75147 5.39108,1.59905 10.59942,1.59905 7.90387,0 12.19846,-3.10673 4.29459,-3.10672 4.29459,-8.8633 0,-5.02559 -3.10672,-7.85819 -3.06104,-2.8326 -10.09686,-4.248904 l -5.61952,-1.096491 q -10.32529,-2.055921 -14.93969,-6.441886 -4.6144,-4.385965 -4.6144,-12.198465 0,-9.046053 6.35051,-14.254386 6.3962,-5.208334 17.58955,-5.208334 4.79715,0 9.77705,0.868056 4.97989,0.868055 10.18823,2.604167 z"/>
	</g>
	<g aria-label="H.G. WELLS">
		<path d="m 479.6176,238.84183 h 6.9216 v 20.9704 h 25.15077 v -20.9704 h 6.9216 V 290 h -6.9216 V 265.63734 H 486.5392 V 290 h -6.9216 z"/>
		<path d="m 536.838,281.2966 h 7.22998 V 290 H 536.838 Z"/>
		<path d="m 598.51288,282.70148 v -13.74041 h -11.30757 v -5.68804 h 18.16064 v 21.96409 q -4.00905,2.84402 -8.84046,4.31743 -4.83141,1.43915 -10.31387,1.43915 -11.99287,0 -18.77741,-6.99014 -6.75028,-7.02439 -6.75028,-19.53125 0,-12.54111 6.75028,-19.53125 6.78454,-7.02439 18.77741,-7.02439 5.00274,0 9.4915,1.23355 4.52303,1.23355 8.32648,3.63213 v 7.36705 q -3.83772,-3.25521 -8.15515,-4.89995 -4.31744,-1.64473 -9.08032,-1.64473 -9.38871,0 -14.11732,5.24259 -4.69436,5.2426 -4.69436,15.625 0,10.34814 4.69436,15.59074 4.72861,5.2426 14.11732,5.2426 3.66639,0 6.54468,-0.61678 2.87829,-0.65104 5.17407,-1.98739 z"/>
		<path d="m 623.66091,281.2966 h 7.22998 V 290 h -7.22998 z"/>
		<path d="m 673.16886,238.84183 h 6.99013 l 10.75932,43.24287 10.72506,-43.24287 h 7.77823 l 10.75932,43.24287 10.72506,-43.24287 h 7.02439 L 725.08087,290 h -8.7034 L 705.58388,245.59211 694.6875,290 h -8.7034 z"/>
		<path d="m 752.07921,238.84183 h 32.34649 v 5.82511 h -25.42489 v 15.14529 h 24.36266 v 5.82511 h -24.36266 v 18.53755 h 26.04167 V 290 h -32.96327 z"/>
		<path d="m 801.48711,238.84183 h 6.9216 v 45.33306 h 24.91091 V 290 h -31.83251 z"/>
		<path d="m 845.54961,238.84183 h 6.9216 v 45.33306 h 24.91091 V 290 h -31.83251 z"/>
		<path d="m 920.2796,240.52083 v 6.75028 q -3.94052,-1.8846 -7.43558,-2.80976 -3.49507,-0.92517 -6.75028,-0.92517 -5.65378,0 -8.73766,2.19299 -3.04962,2.19298 -3.04962,6.23629 0,3.39227 2.02166,5.1398 2.05592,1.71327 7.74397,2.7755 l 4.18037,0.85663 q 7.74397,1.47341 11.41036,5.20833 3.70066,3.70066 3.70066,9.93696 0,7.43558 -5.00274,11.2733 -4.96848,3.83772 -14.59704,3.83772 -3.63213,0 -7.74397,-0.82237 -4.07758,-0.82237 -8.46354,-2.43284 v -7.1272 q 4.21463,2.36431 8.25795,3.5636 4.04331,1.19929 7.94956,1.19929 5.9279,0 9.14885,-2.33005 3.22094,-2.33004 3.22094,-6.64747 0,-3.76919 -2.33005,-5.89364 -2.29577,-2.12446 -7.57264,-3.18668 l -4.21464,-0.82237 q -7.74396,-1.54194 -11.20477,-4.83141 -3.4608,-3.28948 -3.4608,-9.14885 0,-6.78454 4.76289,-10.69079 4.79715,-3.90625 13.19216,-3.90625 3.59786,0 7.33278,0.65104 3.73493,0.65104 7.64118,1.95312 z"/>
	</g>
</svg>
